<?xml version="1.0" encoding="UTF-8"?>
<svg width="24px" height="24px" viewBox="0 0 24 24" version="1.1" xmlns="http://www.w3.org/2000/svg" xmlns:xlink="http://www.w3.org/1999/xlink">
    <!-- Generator: sketchtool 51.2 (57519) - http://www.bohemiancoding.com/sketch -->
    <title>5102E8FE-232C-4E36-991F-455381BC424A</title>
    <desc>Created with sketchtool.</desc>
    <defs></defs>
    <g id="Symbols" stroke="none" stroke-width="1" fill="none" fill-rule="evenodd">
        <g id="ic_delete" fill-rule="nonzero">
            <g>
                <rect x="0" y="0" width="24" height="24"></rect>
                <g id="delete" transform="translate(3.000000, 0.000000)">
                    <rect id="Rectangle-path" fill-opacity="0" fill="#000000" x="0" y="0" width="17" height="23"></rect>
                    <path d="M2,7 L16,7 L16,23 L2,23 L2,7 Z M4,9 L4,21 L6,21 L6,9 L4,9 Z M8,9 L8,21 L10,21 L10,9 L8,9 Z M12,9 L12,21 L14,21 L14,9 L12,9 Z" id="Combined-Shape" fill="#CED8EA"></path>
                    <rect id="Rectangle-path" fill="#CED8EA" x="1" y="4" width="16" height="2"></rect>
                    <rect id="Rectangle-path" fill="#CED8EA" x="4" y="1" width="10" height="2"></rect>
                </g>
            </g>
        </g>
    </g>
</svg>