<?xml version="1.0" encoding="UTF-8"?>
<svg width="172px" height="169px" viewBox="0 0 172 169" version="1.1" xmlns="http://www.w3.org/2000/svg" xmlns:xlink="http://www.w3.org/1999/xlink">
    <!-- Generator: sketchtool 51.2 (57519) - http://www.bohemiancoding.com/sketch -->
    <title>D99E65CE-CEAC-4D09-8934-7B9361970045</title>
    <desc>Created with sketchtool.</desc>
    <defs></defs>
    <g id="Page-1" stroke="none" stroke-width="1" fill="none" fill-rule="evenodd">
        <g id="06_증빙자료-관리-페이지" transform="translate(-761.000000, -423.000000)">
            <g id="scrollview/question" transform="translate(250.000000, 100.000000)">
                <g id="stack_documents" transform="translate(505.000000, 322.000000)">
                    <polygon id="Path-2" fill-opacity="0.1" fill="#000000" fill-rule="nonzero" transform="translate(84.509483, 106.686488) rotate(-20.000000) translate(-84.509483, -106.686488) " points="16.5185697 148.998563 139.241012 166.354695 152.500396 64.1251444 147.550089 59.2585162 30.0264294 47.0182807"></polygon>
                    <g id="newdocument" transform="translate(79.034648, 83.763091) rotate(-10.000000) translate(-79.034648, -83.763091) translate(19.534648, 9.263091)">
                        <polygon id="Fill-1" fill="#F8F9FA" points="119 149 0 149 0 0 71 0 71 48 119 48"></polygon>
                        <polygon id="Stroke-2" stroke="#668298" stroke-width="2" stroke-linecap="round" stroke-linejoin="round" points="0 149 0 0 71 0 71 48 119 48 119 149"></polygon>
                        <polygon id="Fill-13" fill="#E5E5E5" points="71 49 118 68 118 49"></polygon>
                        <polygon id="Fill-14" fill="#F2F8FF" points="119 48 71 48 71 0"></polygon>
                        <polygon id="Stroke-15" stroke="#668298" stroke-width="2" stroke-linecap="round" stroke-linejoin="round" points="119 48 71 48 71 0"></polygon>
                    </g>
                    <polygon id="Path-2" fill-opacity="0.1" fill="#000000" fill-rule="nonzero" transform="translate(98.456792, 108.214661) rotate(-9.000000) translate(-98.456792, -108.214661) " points="30.4658787 150.526736 153.188321 167.882868 166.447705 65.6533174 161.497398 60.7866892 43.9737384 48.5464537"></polygon>
                    <g id="newdocument" transform="translate(95.135762, 83.195914) rotate(-1.000000) translate(-95.135762, -83.195914) translate(35.635762, 8.695914)">
                        <polygon id="Fill-1" fill="#FCFCFC" points="119 149 0 149 0 0 71 0 71 48 119 48"></polygon>
                        <polygon id="Stroke-2" stroke="#668298" stroke-width="2" stroke-linecap="round" stroke-linejoin="round" points="0 149 0 0 71 0 71 48 119 48 119 149"></polygon>
                        <polygon id="Fill-13" fill="#E5E5E5" points="71 49 118 68 118 49"></polygon>
                        <polygon id="Fill-14" fill="#F2F8FF" points="119 48 71 48 71 0"></polygon>
                        <polygon id="Stroke-15" stroke="#668298" stroke-width="2" stroke-linecap="round" stroke-linejoin="round" points="119 48 71 48 71 0"></polygon>
                    </g>
                    <polygon id="Path-2" fill-opacity="0.1" fill="#000000" fill-rule="nonzero" points="42.69185 151.96203 164.384722 169.051685 177.336342 67.2031201 174.210648 63.7784399 56.6869886 51.5382044"></polygon>
                    <g id="newdocument" transform="translate(111.135762, 83.195914) rotate(7.000000) translate(-111.135762, -83.195914) translate(51.635762, 8.695914)">
                        <polygon id="Fill-1" fill="#FFFFFF" points="119 149 0 149 0 0 71 0 71 48 119 48"></polygon>
                        <polygon id="Stroke-2" stroke="#668298" stroke-width="2" stroke-linecap="round" stroke-linejoin="round" points="0 149 0 0 71 0 71 48 119 48 119 149"></polygon>
                        <polygon id="Fill-13" fill="#E5E5E5" points="71 49 118 68 118 49"></polygon>
                        <polygon id="Fill-14" fill="#F2F8FF" points="119 48 71 48 71 0"></polygon>
                        <polygon id="Stroke-15" stroke="#668298" stroke-width="2" stroke-linecap="round" stroke-linejoin="round" points="119 48 71 48 71 0"></polygon>
                    </g>
                </g>
            </g>
        </g>
    </g>
</svg>