<?xml version="1.0" encoding="UTF-8"?>
<svg width="148px" height="36px" viewBox="0 0 148 36" version="1.1" xmlns="http://www.w3.org/2000/svg" xmlns:xlink="http://www.w3.org/1999/xlink">
    <!-- Generator: sketchtool 51.1 (57501) - http://www.bohemiancoding.com/sketch -->
    <title>C33AF8A1-CF40-47AD-B606-47A806AEB09C</title>
    <desc>Created with sketchtool.</desc>
    <defs>
        <polygon id="path-1" points="0 0.103690087 28.9723098 0.103690087 28.9723098 35.9382722 0 35.9382722"></polygon>
    </defs>
    <g id="Symbols" stroke="none" stroke-width="1" fill="none" fill-rule="evenodd">
        <g id="ic_logo_white-copy">
            <g id="ic_logo_width">
                <g id="logo">
                    <path d="M2.92367901,25.5050826 C1.84473083,24.4261262 0,25.190271 0,26.7161586 L0,33.2211253 C0,34.1603762 0.756300448,34.9905177 1.69541776,35 L8.26645746,34.9998736 C9.80055135,35.0152981 10.5796091,33.1610709 9.49484515,32.0762987 L2.92367901,25.5050826 Z" id="Fill-1" fill="#FFFFFF"></path>
                    <path d="M18.088,18 C18.0685,18.018 18.038,18.0475 18,18.0835 C18.0295,18.0555 18.059,18.028 18.088,18" id="Fill-3" fill="#031345"></path>
                    <g id="Group-7">
                        <mask id="mask-2" fill="white">
                            <use xlink:href="#path-1"></use>
                        </mask>
                        <g id="Clip-6"></g>
                        <path d="M21.2749236,27.608197 L11.5234051,17.7783023 C10.6918032,16.9631594 10.1891366,15.8087233 10.2380069,14.5360015 C10.3221875,12.3497459 12.0847431,10.5440617 14.2522245,10.426994 C16.7063495,10.2944977 18.7375579,12.2612346 18.7375579,14.7062571 C18.7375579,15.9144226 18.2399931,17.0037609 17.4415532,17.7819564 C17.1464514,18.0669789 15.2462801,19.7202722 16.455956,21.0578211 L21.0607801,25.6995203 C21.8286088,26.4736556 23.0599005,26.5271143 23.8858634,25.8164526 C27.1433958,23.0135955 29.1536597,18.7812947 28.9593866,14.082212 C28.6438773,6.44439248 22.4173356,0.287851128 14.8358495,0.107851128 C6.67557176,-0.0860887218 -6.71296296e-05,6.52437744 -6.71296296e-05,14.7062571 C-6.71296296e-05,19.1679564 1.98576157,23.1616556 5.11413657,25.8401368 L14.763081,35.5666331 C14.9991088,35.8045579 15.3193171,35.9382722 15.6530856,35.9382722 L26.5000255,35.9382722 C27.6213588,35.9382722 28.182831,34.5716256 27.3900301,33.7724526 L21.2749236,27.608197 Z" id="Fill-5" fill="#FFFFFF" mask="url(#mask-2)"></path>
                    </g>
                    <path d="M18.031,18.002 L18.03,18 C18.02,18.01 18.0105,18.021 18,18.031 C18.019,18.013 18.031,18.002 18.031,18.002" id="Fill-8" fill="#031345"></path>
                </g>
                <path d="M49.216,18.264 C50.016004,18.264 50.6319978,18.0840018 51.064,17.724 C51.4960022,17.3639982 51.712,16.880003 51.712,16.272 L51.712,16.224 C51.712,15.5519966 51.4880022,15.0520016 51.04,14.724 C50.5919978,14.3959984 49.9760039,14.232 49.192,14.232 L46.144,14.232 L46.144,18.264 L49.216,18.264 Z M41.488,10.2 L49.432,10.2 C50.7280065,10.2 51.8239955,10.3599984 52.72,10.68 C53.6160045,11.0000016 54.3439972,11.4479971 54.904,12.024 C55.896005,12.9840048 56.392,14.2879918 56.392,15.936 L56.392,15.984 C56.392,17.2800065 56.0800031,18.3519958 55.456,19.2 C54.8319969,20.0480042 53.9920053,20.6959978 52.936,21.144 L56.944,27 L51.568,27 L48.184,21.912 L46.144,21.912 L46.144,27 L41.488,27 L41.488,10.2 Z M57.626353,10.2 L71.138353,10.2 L71.138353,14.16 L62.234353,14.16 L62.234353,16.704 L70.298353,16.704 L70.298353,20.376 L62.234353,20.376 L62.234353,23.04 L71.258353,23.04 L71.258353,27 L57.626353,27 L57.626353,10.2 Z M71.988706,23.616 L80.412706,14.136 L72.276706,14.136 L72.276706,10.2 L86.844706,10.2 L86.844706,13.584 L78.420706,23.064 L86.844706,23.064 L86.844706,27 L71.988706,27 L71.988706,23.616 Z M96.647059,23.136 C97.2870622,23.136 97.8710564,23.0160012 98.399059,22.776 C98.9270616,22.5359988 99.3750572,22.212002 99.743059,21.804 C100.111061,21.395998 100.399058,20.9200027 100.607059,20.376 C100.81506,19.8319973 100.919059,19.256003 100.919059,18.648 L100.919059,18.6 C100.919059,17.991997 100.81506,17.4160027 100.607059,16.872 C100.399058,16.3279973 100.103061,15.8480021 99.719059,15.432 C99.3350571,15.0159979 98.8790616,14.6840012 98.351059,14.436 C97.8230564,14.1879988 97.2390622,14.064 96.599059,14.064 C95.9590558,14.064 95.3790616,14.1839988 94.859059,14.424 C94.3390564,14.6640012 93.8910609,14.987998 93.515059,15.396 C93.1390571,15.804002 92.85106,16.2799973 92.651059,16.824 C92.451058,17.3680027 92.351059,17.943997 92.351059,18.552 L92.351059,18.6 C92.351059,19.208003 92.455058,19.7839973 92.663059,20.328 C92.87106,20.8720027 93.1630571,21.3519979 93.539059,21.768 C93.9150609,22.1840021 94.3670564,22.5159988 94.895059,22.764 C95.4230616,23.0120012 96.0070558,23.136 96.647059,23.136 Z M96.599059,27.336 C95.3030525,27.336 94.1030645,27.1080023 92.999059,26.652 C91.8950535,26.1959977 90.943063,25.5760039 90.143059,24.792 C89.343055,24.0079961 88.7150613,23.0880053 88.259059,22.032 C87.8030567,20.9759947 87.575059,19.848006 87.575059,18.648 L87.575059,18.6 C87.575059,17.399994 87.8030567,16.2680053 88.259059,15.204 C88.7150613,14.1399947 89.3510549,13.212004 90.167059,12.42 C90.9830631,11.627996 91.9430535,11.0040023 93.047059,10.548 C94.1510645,10.0919977 95.3510525,9.864 96.647059,9.864 C97.9430655,9.864 99.1430535,10.0919977 100.247059,10.548 C101.351065,11.0040023 102.303055,11.6239961 103.103059,12.408 C103.903063,13.1920039 104.531057,14.1119947 104.987059,15.168 C105.443061,16.2240053 105.671059,17.351994 105.671059,18.552 L105.671059,18.6 C105.671059,19.800006 105.443061,20.9319947 104.987059,21.996 C104.531057,23.0600053 103.895063,23.987996 103.079059,24.78 C102.263055,25.572004 101.303065,26.1959977 100.199059,26.652 C99.0950535,27.1080023 97.8950655,27.336 96.599059,27.336 Z M115.473412,23.136 C116.113415,23.136 116.697409,23.0160012 117.225412,22.776 C117.753415,22.5359988 118.20141,22.212002 118.569412,21.804 C118.937414,21.395998 119.225411,20.9200027 119.433412,20.376 C119.641413,19.8319973 119.745412,19.256003 119.745412,18.648 L119.745412,18.6 C119.745412,17.991997 119.641413,17.4160027 119.433412,16.872 C119.225411,16.3279973 118.929414,15.8480021 118.545412,15.432 C118.16141,15.0159979 117.705415,14.6840012 117.177412,14.436 C116.649409,14.1879988 116.065415,14.064 115.425412,14.064 C114.785409,14.064 114.205415,14.1839988 113.685412,14.424 C113.165409,14.6640012 112.717414,14.987998 112.341412,15.396 C111.96541,15.804002 111.677413,16.2799973 111.477412,16.824 C111.277411,17.3680027 111.177412,17.943997 111.177412,18.552 L111.177412,18.6 C111.177412,19.208003 111.281411,19.7839973 111.489412,20.328 C111.697413,20.8720027 111.98941,21.3519979 112.365412,21.768 C112.741414,22.1840021 113.193409,22.5159988 113.721412,22.764 C114.249415,23.0120012 114.833409,23.136 115.473412,23.136 Z M115.425412,27.336 C114.129406,27.336 112.929418,27.1080023 111.825412,26.652 C110.721406,26.1959977 109.769416,25.5760039 108.969412,24.792 C108.169408,24.0079961 107.541414,23.0880053 107.085412,22.032 C106.62941,20.9759947 106.401412,19.848006 106.401412,18.648 L106.401412,18.6 C106.401412,17.399994 106.62941,16.2680053 107.085412,15.204 C107.541414,14.1399947 108.177408,13.212004 108.993412,12.42 C109.809416,11.627996 110.769406,11.0040023 111.873412,10.548 C112.977418,10.0919977 114.177406,9.864 115.473412,9.864 C116.769418,9.864 117.969406,10.0919977 119.073412,10.548 C120.177418,11.0040023 121.129408,11.6239961 121.929412,12.408 C122.729416,13.1920039 123.35741,14.1119947 123.813412,15.168 C124.269414,16.2240053 124.497412,17.351994 124.497412,18.552 L124.497412,18.6 C124.497412,19.800006 124.269414,20.9319947 123.813412,21.996 C123.35741,23.0600053 122.721416,23.987996 121.905412,24.78 C121.089408,25.572004 120.129418,26.1959977 119.025412,26.652 C117.921406,27.1080023 116.721418,27.336 115.425412,27.336 Z M125.803765,10.2 L130.723765,10.2 L134.731765,16.704 L138.739765,10.2 L143.659765,10.2 L143.659765,27 L139.027765,27 L139.027765,17.352 L134.731765,23.928 L134.635765,23.928 L130.363765,17.4 L130.363765,27 L125.803765,27 L125.803765,10.2 Z" id="REZOOM" fill="#FFFFFF"></path>
            </g>
        </g>
    </g>
</svg>