<?xml version="1.0" encoding="UTF-8"?>
<svg width="24px" height="24px" viewBox="0 0 24 24" version="1.1" xmlns="http://www.w3.org/2000/svg" xmlns:xlink="http://www.w3.org/1999/xlink">
    <!-- Generator: sketchtool 51.2 (57519) - http://www.bohemiancoding.com/sketch -->
    <title>9E84A920-7344-40A0-A436-3696C075D883</title>
    <desc>Created with sketchtool.</desc>
    <defs></defs>
    <g id="Symbols" stroke="none" stroke-width="1" fill="none" fill-rule="evenodd">
        <g id="ic_nav_manage_document">
            <g>
                <rect id="Rectangle-5" fill-rule="nonzero" x="0" y="0" width="24" height="24"></rect>
                <g id="Group-10" transform="translate(3.000000, 4.000000)">
                    <polygon id="Fill-1" fill="#001322" points="0 0 0 12 7.78322222 12 7.78322222 10.4999062 1.55555556 10.4999062 1.55555556 1.50009376 14 1.50009376 14 0"></polygon>
                    <polygon id="Fill-2" fill="#001322" points="12 11 12 16 13.9995999 14.509687 16 16 16 11"></polygon>
                    <polygon id="Fill-3" fill="#001322" points="3 6 8 6 8 4 3 4"></polygon>
                    <polygon id="Fill-4" fill="#001322" points="3 9 8 9 8 7 3 7"></polygon>
                    <g id="Group-9" transform="translate(10.000000, 4.000000)">
                        <path d="M4.9813534,0.719116017 C5.06353089,0.789521719 5.16679819,0.826289141 5.27297441,0.820030857 L6.18419917,0.771529151 C6.38637034,0.760577153 6.56817895,0.902953128 6.62126707,1.11338795 L6.8605272,2.06073578 C6.88816211,2.17103805 6.95215874,2.2656946 7.04015411,2.32827745 L7.8044775,2.86492536 C7.97465036,2.98383276 8.04373763,3.21382472 7.97174142,3.41721897 L7.64666763,4.33562224 C7.60957867,4.4412308 7.60957867,4.55857363 7.64666763,4.66496447 L7.97174142,5.58258545 C8.04373763,5.78676199 7.97465036,6.01675395 7.8044775,6.13566136 L7.04015411,6.67230926 C6.95215874,6.73489211 6.88816211,6.82954866 6.8605272,6.93906865 L6.62126707,7.88719877 C6.56817895,8.09763359 6.38637034,8.23922728 6.18419917,8.22905756 L5.27297441,8.17977357 C5.16679819,8.17429757 5.06353089,8.21028271 4.9813534,8.28225298 L4.27011812,8.89791173 C4.11230825,9.03402942 3.88832004,9.03402942 3.73051016,8.89791173 L3.01854765,8.28225298 C2.93637015,8.21028271 2.83237563,8.17429757 2.72765387,8.17977357 L1.81570188,8.22905756 C1.61353071,8.23922728 1.4317221,8.09763359 1.37863398,7.88719877 L1.14010108,6.93906865 C1.11246618,6.82954866 1.04774231,6.73489211 0.959746943,6.67230926 L0.194696311,6.13566136 C0.0259779208,6.01675395 -0.0438365856,5.78676199 0.0281596241,5.58258545 L0.353233419,4.66496447 C0.39104961,4.55857363 0.39104961,4.4412308 0.353233419,4.33562224 L0.0281596241,3.41721897 C-0.0438365856,3.21382472 0.0259779208,2.98383276 0.194696311,2.86492536 L0.959746943,2.32827745 C1.04774231,2.2656946 1.11246618,2.17103805 1.14010108,2.06073578 L1.37863398,1.11338795 C1.4317221,0.902953128 1.61353071,0.760577153 1.81570188,0.771529151 L2.72765387,0.820030857 C2.83237563,0.826289141 2.93637015,0.789521719 3.01854765,0.719116017 L3.73051016,0.102674982 C3.88832004,-0.034224994 4.11230825,-0.034224994 4.27011812,0.102674982 L4.9813534,0.719116017 Z" id="Fill-5" fill="#001322"></path>
                        <path d="M6,4 C6,5.10466667 5.104,6 4,6 C2.89533333,6 2,5.10466667 2,4 C2,2.89533333 2.89533333,2 4,2 C5.104,2 6,2.89533333 6,4" id="Fill-7" fill="#FFFFFF"></path>
                    </g>
                </g>
            </g>
        </g>
    </g>
</svg>