<?xml version="1.0" encoding="UTF-8"?>
<svg width="24px" height="24px" viewBox="0 0 24 24" version="1.1" xmlns="http://www.w3.org/2000/svg" xmlns:xlink="http://www.w3.org/1999/xlink">
    <!-- Generator: sketchtool 51.2 (57519) - http://www.bohemiancoding.com/sketch -->
    <title>588C7B8E-44D6-4F7D-A3CD-FA4F17CAB807</title>
    <desc>Created with sketchtool.</desc>
    <defs></defs>
    <g id="Symbols" stroke="none" stroke-width="1" fill="none" fill-rule="evenodd">
        <g id="ic_nav_mypage">
            <g>
                <rect id="Rectangle-5" fill-rule="nonzero" x="0" y="0" width="24" height="24"></rect>
                <g id="Group-7" transform="translate(4.000000, 6.000000)" fill="#001322">
                    <path d="M7.99962498,5 C6.89480593,5 6,5.89545523 6,7.00014999 L6,7.99985001 C6,9.10454477 6.89480593,10 7.99962498,10 C9.10519407,10 10,9.10454477 10,7.99985001 L10,7.00014999 C10,5.89545523 9.10519407,5 7.99962498,5" id="Fill-1"></path>
                    <path d="M12,13 L12,12.0372435 C12,11.5020071 11.5526667,11.0196253 11.1926667,10.8068689 C10.7966667,10.574041 10.3686667,10.3954059 9.99666667,10.2903657 C9.574,10.1706066 8.78133333,10 8,10 C7.21933333,10 6.42666667,10.1706066 6.004,10.2903657 C5.632,10.3954059 5.20466667,10.574041 4.80866667,10.8068689 C4.448,11.0196253 4,11.5020071 4,12.0372435 L4,13 L12,13 Z" id="Fill-3"></path>
                    <polygon id="Fill-5" points="0 0 0 10 2.90909091 10 2.90909091 8.57142857 1.45454545 8.57142857 1.45454545 1.42857143 14.5454545 1.42857143 14.5454545 8.57142857 13.0909091 8.57142857 13.0909091 10 16 10 16 0"></polygon>
                </g>
            </g>
        </g>
    </g>
</svg>